<svg width="41" height="41" viewBox="0 0 41 41" fill="none" xmlns="http://www.w3.org/2000/svg">
<circle cx="20.1479" cy="20.0023" r="19.5" fill="#262630" stroke="#CCA831"/>
<path d="M29.1479 13.821C29.1479 12.3236 27.8267 11.0023 26.3293 11.0023H14.9666C13.4691 11.0023 12.1479 12.3236 12.1479 13.821V25.1837C12.1479 26.6811 13.4691 28.0023 14.9666 28.0023H20.6919V21.5723H18.578V18.7536H20.6919V17.6085C20.6919 15.6707 22.1013 13.9971 23.8629 13.9971H26.1531V16.8158H23.8629C23.5987 16.8158 23.3344 17.08 23.3344 17.6085V18.7536H26.1531V21.5723H23.3344V28.0023H26.3293C27.8267 28.0023 29.1479 26.6811 29.1479 25.1837V13.821Z" fill="white"/>
</svg>
