<svg width="40" height="41" viewBox="0 0 40 41" fill="none" xmlns="http://www.w3.org/2000/svg">
<circle cx="20" cy="20.5023" r="19.5" fill="#262630" stroke="#CCA831"/>
<path d="M26.5808 12.5023H14.4192C13.0462 12.5023 12 13.5485 12 14.9216V27.0831C12 28.4562 13.0462 29.5023 14.4192 29.5023H26.5808C27.9538 29.5023 29 28.4562 29 27.0831V14.9216C29 13.5485 27.9538 12.5023 26.5808 12.5023ZM20.5 26.1023C23.3115 26.1023 25.6 23.8792 25.6 21.1985C25.6 20.7408 25.5346 20.2177 25.4038 19.8254H26.8423V26.7562C26.8423 27.0831 26.5808 27.41 26.1885 27.41H14.8115C14.4846 27.41 14.1577 27.1485 14.1577 26.7562V19.76H15.6615C15.5308 20.2177 15.4654 20.6754 15.4654 21.1331C15.4 23.8792 17.6885 26.1023 20.5 26.1023ZM20.5 24.1408C18.6692 24.1408 17.2308 22.7023 17.2308 20.9369C17.2308 19.1716 18.6692 17.7331 20.5 17.7331C22.3308 17.7331 23.7692 19.1716 23.7692 20.9369C23.7692 22.7677 22.3308 24.1408 20.5 24.1408ZM26.7769 17.1446C26.7769 17.5369 26.45 17.8639 26.0577 17.8639H24.2269C23.8346 17.8639 23.5077 17.5369 23.5077 17.1446V15.3792C23.5077 14.9869 23.8346 14.66 24.2269 14.66H26.0577C26.45 14.66 26.7769 14.9869 26.7769 15.3792V17.1446Z" fill="white"/>
</svg>
