<svg width="119" height="286" viewBox="0 0 119 286" fill="none" xmlns="http://www.w3.org/2000/svg">
<path fill-rule="evenodd" clip-rule="evenodd" d="M27.6972 0V16.7044H10.2824V106.632L10.1548 106.632C10.1548 110.4 10.1597 114.113 10.1645 117.789C10.1739 125.035 10.1832 132.139 10.1548 139.244C10.105 139.923 9.83418 140.567 9.38376 141.078C4.56477 146.518 4.422 148.575 8.46281 154.15L3.50103 159.469C-4.59486 152.815 -8.80701 151.659 -12.6979 155.621C-19.473 162.503 -14.5041 167.772 -9.54951 172.619C-16.5103 180.844 -17.6454 184.813 -13.5832 188.847C-6.77946 195.615 -1.44646 190.817 3.27972 185.92L8.84117 190.746C4.96456 195.858 4.50053 199.82 7.92737 202.783C9.96919 204.553 10.2762 206.345 10.1905 208.644C10.1584 209.422 10.174 210.203 10.1895 210.983C10.212 212.113 10.2345 213.24 10.112 214.355C10.0645 214.841 9.91994 215.311 9.6869 215.739C9.45387 216.167 9.13713 216.544 8.7555 216.847C5.0431 219.053 3.80801 222.301 3.80801 226.442V281.414C3.80801 281.566 3.79318 281.724 3.77843 281.881C3.74519 282.235 3.71239 282.585 3.85085 282.842C4.31807 283.615 4.83808 284.354 5.4072 285.055C5.59122 284.822 5.79705 284.593 6.00335 284.364C6.48526 283.828 6.96992 283.29 7.18486 282.685C7.40037 282.079 7.35199 281.384 7.30402 280.696C7.28366 280.403 7.26338 280.112 7.26338 279.829V231.882C10.7402 230.704 10.7402 232.668 10.7402 234.738V285.177L14.8595 284.863V234.888C14.8595 234.781 14.859 234.673 14.8584 234.565C14.8482 232.594 14.8378 230.584 18.2221 232.032V281.643C18.2221 281.691 18.2221 281.74 18.222 281.788L18.2217 281.891C18.2167 283.934 18.2118 285.897 21.3134 284.813C21.4419 284.59 21.5357 284.349 21.5918 284.099C21.598 279.841 21.609 275.584 21.62 271.326C21.6605 255.716 21.701 240.104 21.499 224.493C21.499 222.259 19.7785 219.339 17.9294 217.975C15.6234 216.276 15.0666 214.591 15.2593 212.092C15.3272 211.203 15.3129 210.311 15.2986 209.419C15.2843 208.526 15.2701 207.634 15.3379 206.745C15.3629 205.852 15.6703 204.99 16.216 204.282C20.935 199.292 21.1278 196.686 16.8443 190.846C18.2861 189.417 19.7552 187.971 21.3088 186.442L21.9845 185.777C30.4945 192.731 34.4353 193.695 38.519 189.489C39.9958 187.828 40.969 185.78 41.3247 183.585C41.9379 179.825 39.6264 177.47 37.3691 175.172C36.6568 174.446 35.9499 173.726 35.342 172.969C35.9499 172.122 36.5902 171.312 37.2223 170.512C38.6246 168.737 39.987 167.013 40.8678 165.045C41.5814 163.505 41.7511 161.769 41.3491 160.12C40.947 158.472 39.9969 157.009 38.6546 155.971C36.9925 154.673 35.0267 153.82 32.9432 153.493C29.098 152.851 26.7363 155.196 24.3849 157.532C23.6804 158.231 22.9767 158.93 22.2344 159.548L16.6729 154.407C21.135 149.067 20.9351 145.94 16.316 141.143C15.6785 140.355 15.3329 139.371 15.3379 138.358C15.2998 131.771 15.3125 125.187 15.3252 118.604V118.602C15.3316 115.311 15.3379 112.021 15.3379 108.73C15.415 108.017 15.3379 106.632 15.3379 106.632L15.2798 106.632V21.7018H27.6972V34.474H19.5229V49.0674H32.6946V39.4715H50.4648V21.7018H59.3498V8.52975H45.4673V16.7044H32.6946V4.99747H118.336V0H27.6972ZM32.6946 34.474V21.7018H45.4673V34.474H32.6946ZM24.5204 39.4715H27.6972V44.0699H24.5204V39.4715ZM54.3524 16.7044H50.4648V13.5272H54.3524V16.7044ZM-6.16552 169.707L0.345501 162.725C-0.501325 162.307 -1.29571 161.9 -2.05503 161.512C-4.1252 160.453 -5.93478 159.527 -7.83608 158.869C-8.3501 158.691 -10.4348 160.79 -10.2563 161.275C-9.53862 163.234 -8.56342 165.098 -7.44068 167.243L-7.43983 167.244L-7.43923 167.245C-7.03229 168.023 -6.60597 168.837 -6.16552 169.707ZM32.9463 167.565C34.0511 165.352 35.0678 163.316 35.7775 161.175C35.9346 160.704 33.5429 158.577 32.9646 158.805C31.1427 159.533 29.4439 160.567 27.6146 161.68C26.9136 162.106 26.1935 162.544 25.4399 162.982L32.0794 169.314C32.3702 168.719 32.659 168.141 32.9421 167.574L32.9437 167.57L32.945 167.568L32.9463 167.565ZM12.4465 158.163L7.8631 162.924C9.59079 164.945 11.2328 166.865 12.8034 168.714L18.2364 163.438L12.4465 158.163ZM-9.42101 185.734C-7.20188 187.846 -4.71885 186.835 -0.532109 181.716C-1.37859 180.917 -2.17063 180.063 -2.90289 179.159C-3.59512 178.099 -4.22674 177 -4.79476 175.868C-10.6489 181.151 -11.6413 183.621 -9.42101 185.734ZM27.5192 183.665C29.6321 184.769 31.4753 185.733 33.4287 186.441C33.9142 186.612 35.6419 184.963 35.8703 183.949C36.5047 181.167 34.8212 179.753 33.0708 178.282C32.4181 177.733 31.7558 177.177 31.2013 176.539L25.0401 182.386C25.9159 182.828 26.7354 183.256 27.518 183.665L27.5192 183.665ZM7.44901 181.722L12.4465 186.926L18.1579 181.979L13.0462 176.503L7.44901 181.722ZM3.28686 167.444L-1.81771 172.562L3.34395 177.667L8.86971 172.669L3.28686 167.444ZM21.8489 177.931L27.4746 172.52L22.5771 167.572L17.1441 172.855C18.6576 174.497 20.2497 176.218 21.8203 177.903L21.8489 177.931ZM11.9753 150.431H13.7387L14.1242 146.319L11.447 146.447C11.5969 147.725 11.7683 149.067 11.9468 150.402L11.9753 150.431ZM11.8539 194.487C11.6903 196.004 11.6212 197.53 11.6469 199.056C11.6469 199.192 13.5816 199.599 13.8601 199.256C15.2808 197.507 14.6026 196.1 11.8539 194.487Z" fill="#7E612B"/>
</svg>
