<svg width="117" height="286" viewBox="0 0 117 286" fill="none" xmlns="http://www.w3.org/2000/svg">
<path fill-rule="evenodd" clip-rule="evenodd" d="M106.717 17.4148H90.0131V0H0.0859375V4.99747H85.0157V17.4148H72.2435V9.24056H57.6501V22.4123H67.246V40.1824H85.0157V49.0675H98.1877V35.1849H90.0131V22.4123H101.72V107.342H101.592C101.592 111.051 101.597 114.706 101.602 118.325V118.5C101.612 125.746 101.621 132.85 101.592 139.954C101.543 140.634 101.272 141.278 100.821 141.789C96.0024 147.229 95.8597 149.285 99.9004 154.861L94.9387 160.18C86.8428 153.526 82.6307 152.369 78.7397 156.332C71.9646 163.214 76.9335 168.483 81.8881 173.33C74.9274 181.555 73.7923 185.524 77.8545 189.558C84.6582 196.326 89.9912 191.528 94.7173 186.631L100.279 191.457C96.4022 196.568 95.9382 200.531 99.365 203.494C101.407 205.264 101.714 207.056 101.628 209.355C101.596 210.133 101.612 210.914 101.627 211.694C101.65 212.823 101.672 213.951 101.55 215.066C101.502 215.551 101.358 216.022 101.125 216.45C100.891 216.878 100.575 217.255 100.193 217.558C96.4807 219.764 95.2456 223.012 95.2456 227.153V282.125C95.2456 282.276 95.2308 282.435 95.2161 282.592C95.1828 282.946 95.15 283.296 95.2885 283.553C95.7557 284.326 96.2757 285.065 96.8448 285.766C97.029 285.533 97.2349 285.304 97.4413 285.075C97.9232 284.539 98.4076 284.001 98.6225 283.396C98.838 282.789 98.7896 282.095 98.7417 281.407C98.7213 281.114 98.701 280.823 98.701 280.54V232.593C102.178 231.415 102.178 233.378 102.178 235.449V285.887L106.297 285.573V235.599C106.297 235.492 106.297 235.384 106.296 235.276C106.286 233.305 106.275 231.295 109.66 232.743V282.354C109.66 282.436 109.66 282.519 109.659 282.601C109.654 284.645 109.65 286.608 112.751 285.523C112.88 285.301 112.973 285.06 113.029 284.809C113.036 280.554 113.047 276.298 113.058 272.042C113.098 256.429 113.139 240.817 112.937 225.204C112.937 222.969 111.216 220.049 109.367 218.686C107.061 216.987 106.504 215.302 106.697 212.803C106.765 211.914 106.751 211.022 106.736 210.129C106.722 209.237 106.708 208.345 106.776 207.456C106.801 206.563 107.108 205.7 107.654 204.993C112.373 200.002 112.565 197.397 108.282 191.557C109.704 190.147 111.153 188.721 112.683 187.215L112.757 187.143L112.774 187.126L113.422 186.488C121.932 193.441 125.873 194.405 129.957 190.2C131.433 188.539 132.407 186.491 132.762 184.296C133.376 180.535 131.064 178.181 128.807 175.882C128.094 175.157 127.388 174.437 126.78 173.68C127.387 172.833 128.027 172.023 128.659 171.223L128.66 171.222C130.062 169.448 131.425 167.724 132.305 165.756C133.019 164.216 133.189 162.48 132.787 160.831C132.385 159.183 131.435 157.72 130.092 156.682C128.43 155.384 126.464 154.531 124.381 154.204C120.536 153.562 118.174 155.907 115.823 158.242L115.822 158.243C115.118 158.943 114.414 159.641 113.672 160.258L108.111 155.118C112.573 149.778 112.373 146.651 107.754 141.853C107.116 141.066 106.771 140.082 106.776 139.069C106.738 132.493 106.75 125.919 106.763 119.347V119.313C106.769 116.022 106.776 112.732 106.776 109.441C106.853 108.728 106.776 107.342 106.776 107.342H106.717V17.4148ZM72.2435 22.4123H85.0157V35.1849H72.2435V22.4123ZM67.246 14.238V17.4148H62.6476V14.238H67.246ZM90.0131 44.07V40.1824H93.1902V44.07H90.0131ZM85.2721 170.417L91.7831 163.435C90.9369 163.018 90.143 162.612 89.3842 162.224L89.3829 162.223L89.3821 162.223L89.3813 162.222C87.3117 161.163 85.5024 160.238 83.6016 159.58C83.0876 159.402 81.0029 161.501 81.1814 161.986C81.8991 163.946 82.8745 165.809 83.9975 167.954C84.4047 168.732 84.8313 169.547 85.2721 170.417ZM124.384 168.276C125.489 166.063 126.505 164.027 127.215 161.886C127.372 161.415 124.981 159.287 124.402 159.516C122.58 160.244 120.882 161.277 119.052 162.39L119.049 162.392C118.349 162.818 117.63 163.256 116.878 163.692L123.517 170.025C123.808 169.429 124.098 168.85 124.381 168.282L124.384 168.276ZM103.884 158.873L99.3008 163.635C101.028 165.656 102.67 167.576 104.241 169.425L109.674 164.149L103.884 158.873ZM82.0166 186.445C84.2358 188.557 86.7188 187.546 90.9055 182.427C90.0591 181.628 89.267 180.774 88.5347 179.87C87.8425 178.809 87.2109 177.71 86.6429 176.579C80.7887 181.862 79.7963 184.332 82.0166 186.445ZM118.957 184.376L118.958 184.377L118.96 184.378C121.072 185.481 122.914 186.444 124.866 187.152C125.352 187.323 127.079 185.674 127.308 184.66C127.942 181.878 126.259 180.464 124.508 178.993C123.856 178.444 123.194 177.888 122.639 177.25L116.478 183.097C117.354 183.539 118.173 183.967 118.956 184.376L118.956 184.376L118.957 184.376ZM98.8866 182.433L103.884 187.637L109.595 182.69L104.484 177.214L98.8866 182.433ZM94.7245 168.154L89.6199 173.273L94.7816 178.378L100.307 173.38L94.7245 168.154ZM113.286 178.642L118.912 173.23L114.015 168.283L108.582 173.566C110.095 175.208 111.687 176.928 113.258 178.613L113.286 178.642ZM103.413 151.142H105.176L105.562 147.029L102.885 147.158C103.035 148.436 103.206 149.778 103.384 151.113L103.413 151.142ZM103.292 195.198C103.128 196.715 103.059 198.241 103.084 199.767C103.084 199.903 105.019 200.309 105.298 199.967C106.718 198.218 106.04 196.811 103.292 195.198Z" fill="#7E612B"/>
</svg>
