<svg width="41" height="41" viewBox="0 0 41 41" fill="none" xmlns="http://www.w3.org/2000/svg">
<circle cx="20.2219" cy="20.0023" r="19.5" fill="#262630" stroke="#CCA831"/>
<path d="M30.028 25.1176C30.028 25.0346 29.945 25.0346 29.945 24.9516C29.6129 24.2874 28.8657 23.4572 27.8694 22.5439C27.3713 22.1288 27.1222 21.7967 26.9562 21.6307C26.7071 21.2986 26.7071 21.0495 26.7901 20.7174C26.8732 20.4684 27.2052 20.0532 27.7864 19.306C28.1185 18.8909 28.2845 18.6419 28.5336 18.3928C29.7789 16.7323 30.3601 15.653 30.1941 15.1549L30.1111 15.0719C30.028 14.9888 29.945 14.9058 29.7789 14.9058C29.6129 14.8228 29.3638 14.8228 29.1148 14.9058H25.9599C25.8769 14.9058 25.8769 14.9058 25.7108 14.9058C25.6278 14.9058 25.5448 14.9058 25.5448 14.9058H25.4618H25.3787L25.2957 14.9888C25.2127 15.0719 25.2127 15.0719 25.2127 15.1549C24.8806 16.0681 24.4655 16.8153 24.0504 17.6456C23.8013 18.0607 23.5522 18.4758 23.3032 18.8079C23.0541 19.14 22.888 19.3891 22.722 19.5551C22.556 19.7211 22.3899 19.8042 22.3069 19.9702C22.2239 20.0532 22.0578 20.1363 22.0578 20.0532C21.9748 20.0532 21.8918 20.0532 21.8918 19.9702C21.8087 19.8872 21.7257 19.8042 21.6427 19.7211C21.5597 19.6381 21.5597 19.4721 21.4767 19.306C21.4767 19.14 21.4767 18.9739 21.4767 18.8909C21.4767 18.8079 21.4767 18.5588 21.4767 18.3928C21.4767 18.1437 21.4767 17.9777 21.4767 17.8946C21.4767 17.6456 21.4767 17.3135 21.4767 16.9814C21.4767 16.6493 21.4767 16.4002 21.4767 16.2342C21.4767 16.0681 21.4767 15.8191 21.4767 15.653C21.4767 15.404 21.4767 15.2379 21.4767 15.1549C21.4767 15.0719 21.3937 14.9058 21.3937 14.8228C21.3106 14.7398 21.2276 14.6567 21.1446 14.5737C21.0615 14.4907 20.8955 14.4907 20.8125 14.4077C20.3974 14.3247 19.8992 14.2416 19.3181 14.2416C17.9897 14.2416 17.0765 14.3247 16.7444 14.4907C16.5783 14.5737 16.4123 14.6568 16.3292 14.8228C16.1632 14.9888 16.1632 15.0719 16.2462 15.0719C16.6613 15.1549 16.9934 15.3209 17.1595 15.57L17.2425 15.7361C17.3255 15.8191 17.3255 15.9851 17.4085 16.2342C17.4916 16.4833 17.4916 16.7323 17.4916 17.0644C17.4916 17.5626 17.4916 18.0607 17.4916 18.3928C17.4916 18.8079 17.4085 19.057 17.4085 19.306C17.4085 19.5551 17.3255 19.7211 17.2425 19.8042C17.1595 19.9702 17.1595 20.0532 17.0765 20.0532C17.0765 20.0532 17.0764 20.1363 16.9934 20.1363C16.9104 20.1363 16.8274 20.2193 16.6613 20.2193C16.5783 20.2193 16.4123 20.1363 16.3292 20.0532C16.1632 19.9702 15.9972 19.8042 15.9141 19.6381C15.7481 19.4721 15.582 19.223 15.416 18.8909C15.2499 18.5588 15.0009 18.2267 14.8348 17.7286L14.6688 17.3965C14.5858 17.2305 14.4197 16.8984 14.2537 16.4833C14.0876 16.0681 13.9216 15.7361 13.7555 15.3209C13.6725 15.1549 13.5895 15.0719 13.5065 14.9888H13.4234C13.4234 14.9888 13.3404 14.9058 13.2574 14.9058C13.1744 14.9058 13.0914 14.8228 13.0083 14.8228H10.0195C9.68741 14.8228 9.52137 14.9058 9.43834 14.9888L9.35532 15.0719C9.35532 15.0719 9.35532 15.1549 9.35532 15.2379C9.35532 15.3209 9.35532 15.404 9.43834 15.57C9.85346 16.5663 10.3516 17.5626 10.8497 18.5588C11.3479 19.4721 11.846 20.3023 12.1781 20.8835C12.5932 21.4646 12.9253 22.0458 13.3404 22.5439C13.7555 23.0421 14.0046 23.3742 14.0876 23.5402C14.2537 23.7062 14.3367 23.7893 14.4197 23.8723L14.6688 24.1214C14.8348 24.2874 15.0839 24.5365 15.416 24.7855C15.7481 25.0346 16.1632 25.2837 16.5783 25.5327C16.9934 25.7818 17.4916 25.9479 17.9897 26.1139C18.5709 26.28 19.069 26.363 19.5671 26.28H20.8125C21.0616 26.28 21.2276 26.1969 21.3937 26.0309L21.4767 25.9479C21.4767 25.8648 21.5597 25.8648 21.5597 25.7818C21.5597 25.6988 21.5597 25.6158 21.5597 25.4497C21.5597 25.1176 21.5597 24.8686 21.6427 24.6195C21.7257 24.3704 21.7257 24.2044 21.8088 24.0383C21.8918 23.8723 21.9748 23.7893 22.0578 23.7062C22.1408 23.6232 22.2239 23.5402 22.2239 23.5402H22.3069C22.4729 23.4572 22.722 23.5402 22.8881 23.7062C23.1371 23.8723 23.3862 24.1214 23.5522 24.3704C23.7183 24.6195 23.9674 24.8686 24.2995 25.2007C24.6315 25.5328 24.8806 25.7818 25.0467 25.8648L25.2957 26.0309C25.4618 26.1139 25.6278 26.1969 25.8769 26.28C26.126 26.363 26.292 26.363 26.458 26.363L29.2808 26.28C29.5299 26.28 29.779 26.1969 29.945 26.1139C30.1111 26.0309 30.1941 25.9479 30.1941 25.7818C30.1941 25.6988 30.1941 25.5328 30.1941 25.4497C30.028 25.2837 30.028 25.2007 30.028 25.1176Z" fill="white"/>
</svg>
