<svg width="41" height="41" viewBox="0 0 41 41" fill="none" xmlns="http://www.w3.org/2000/svg">
<circle cx="20.0739" cy="20.0023" r="19.5" fill="#262630" stroke="#CCA831"/>
<path d="M28.0008 12.0648C26.0252 10.0961 23.391 9.00232 20.6105 9.00232C14.83 9.00232 10.1471 13.669 10.1471 19.4294C10.1471 21.2523 10.6593 23.0752 11.5374 24.6065L10.0739 30.0023L15.6349 28.544C17.1715 29.3461 18.8544 29.7836 20.6105 29.7836C26.391 29.7836 31.0739 25.1169 31.0739 19.3565C31.0008 16.6586 29.9764 14.0336 28.0008 12.0648ZM25.6593 23.1482C25.4398 23.7315 24.4154 24.3148 23.9032 24.3877C23.4642 24.4607 22.8788 24.4607 22.2935 24.3148C21.9276 24.169 21.4154 24.0232 20.83 23.7315C18.1959 22.6377 16.513 20.0127 16.3666 19.794C16.2203 19.6482 15.2691 18.4086 15.2691 17.0961C15.2691 15.7836 15.9276 15.2002 16.1471 14.9086C16.3666 14.6169 16.6593 14.6169 16.8788 14.6169C17.0252 14.6169 17.2447 14.6169 17.391 14.6169C17.5374 14.6169 17.7569 14.544 17.9764 15.0544C18.1959 15.5648 18.7081 16.8773 18.7813 16.9502C18.8544 17.0961 18.8544 17.2419 18.7813 17.3877C18.7081 17.5336 18.6349 17.6794 18.4886 17.8252C18.3422 17.9711 18.1959 18.1898 18.1227 18.2627C17.9764 18.4086 17.83 18.5544 17.9764 18.7732C18.1227 19.0648 18.6349 19.8669 19.4398 20.5961C20.4642 21.4711 21.2691 21.7627 21.5617 21.9086C21.8544 22.0544 22.0008 21.9815 22.1471 21.8357C22.2935 21.6898 22.8057 21.1065 22.952 20.8148C23.0983 20.5232 23.3178 20.5961 23.5374 20.669C23.7569 20.7419 25.0739 21.3982 25.2935 21.544C25.5861 21.6898 25.7325 21.7627 25.8056 21.8357C25.8788 22.0544 25.8788 22.5648 25.6593 23.1482Z" fill="white"/>
</svg>
